<svg width="48" height="48" viewBox="0 0 48 48" fill="none" xmlns="http://www.w3.org/2000/svg">
<path d="M46.4307 8.97937C46.4093 8.6124 46.2538 8.26608 45.9939 8.00616C45.734 7.74623 45.3876 7.5908 45.0207 7.56937C35.3157 7.00687 27.5232 9.95812 24.1744 15.4856C21.9619 19.14 21.9657 23.5781 24.1444 27.8119C22.9041 29.288 21.9978 31.015 21.4876 32.8744L18.4369 29.8125C19.9032 26.7506 19.8469 23.5594 18.2494 20.9081C15.7744 16.8225 10.0613 14.6325 2.96818 15.0487C2.60122 15.0702 2.25489 15.2256 1.99497 15.4855C1.73504 15.7455 1.57961 16.0918 1.55818 16.4587C1.14006 23.5519 3.33193 29.265 7.41756 31.74C8.76573 32.5639 10.3151 32.9999 11.8951 33C13.4286 32.981 14.9383 32.6177 16.3126 31.9369L21.0001 36.6244V42C21.0001 42.3978 21.1581 42.7793 21.4394 43.0607C21.7207 43.342 22.1022 43.5 22.5001 43.5C22.8979 43.5 23.2794 43.342 23.5607 43.0607C23.842 42.7793 24.0001 42.3978 24.0001 42V36.4706C23.9932 34.0843 24.8053 31.7678 26.3007 29.9081C28.2299 30.9164 30.3696 31.456 32.5463 31.4831C34.6508 31.4899 36.7162 30.915 38.5144 29.8219C44.0419 26.4769 47.0007 18.6844 46.4307 8.97937ZM8.96443 29.175C6.08818 27.4331 4.46068 23.31 4.50006 18C9.81006 17.955 13.9332 19.5881 15.6751 22.4644C16.5844 23.9644 16.7326 25.7137 16.1363 27.5156L11.5594 22.9387C11.2758 22.6693 10.8982 22.5213 10.5071 22.5263C10.1159 22.5313 9.74222 22.6889 9.46561 22.9655C9.18901 23.2422 9.03141 23.6159 9.0264 24.007C9.02139 24.3981 9.16938 24.7758 9.43881 25.0594L14.0157 29.6362C12.2138 30.2325 10.4663 30.0844 8.96443 29.175ZM36.9601 27.2587C34.4476 28.7794 31.4944 28.8956 28.4944 27.6337L38.5613 17.565C38.8307 17.2814 38.9787 16.9038 38.9737 16.5126C38.9687 16.1215 38.8111 15.7478 38.5345 15.4712C38.2579 15.1946 37.8842 15.037 37.493 15.032C37.1019 15.027 36.7243 15.1749 36.4407 15.4444L26.3719 25.5C25.1044 22.5 25.2188 19.545 26.7469 17.0344C29.3607 12.7219 35.5594 10.3181 43.4963 10.5037C43.6763 18.4387 41.2763 24.645 36.9601 27.2587Z" fill="#9747FF"/>
</svg>
